<svg xmlns="http://www.w3.org/2000/svg" viewBox="0 0 400 400" width="400" height="400">
  <defs>
    <linearGradient id="h24Blue" x1="0%" y1="0%" x2="100%" y2="100%">
      <stop offset="0%" stop-color="#6EB1FF"/>
      <stop offset="100%" stop-color="#4DAFFF"/>
    </linearGradient>
  </defs>

  <circle cx="200" cy="200" r="184" fill="none" stroke="url(#h24Blue)" stroke-width="7" opacity="0.9"/>
  <circle cx="200" cy="200" r="168" fill="none" stroke="url(#h24Blue)" stroke-width="3" opacity="0.85"/>

  <polygon points="34,200 40,212 54,212 43,220 47,234 34,226 21,234 25,220 14,212 28,212" fill="url(#h24Blue)" opacity="0.9"/>
  <polygon points="366,200 372,212 386,212 375,220 379,234 366,226 353,234 357,220 346,212 360,212" fill="url(#h24Blue)" opacity="0.9"/>

  <text x="200" y="62" text-anchor="middle" fill="url(#h24Blue)" font-family="Arial, Helvetica, sans-serif" font-size="36" font-weight="800" letter-spacing="8" opacity="0.92">H24</text>
  <text x="200" y="352" text-anchor="middle" fill="#AAB8C2" font-family="Georgia, 'Times New Roman', serif" font-size="22" font-weight="400" letter-spacing="7" opacity="0.95">TECHNOLOGY</text>

  <g transform="translate(200 188) scale(1.05)">
    <polygon
      points="0,-52 -45,-26 -45,26 0,52 45,26 45,-26"
      fill="none"
      stroke="url(#h24Blue)"
      stroke-width="8"
      stroke-linejoin="round"
      opacity="0.92"
    />
    <path
      d="M 0,-28 A 28 28 0 1 1 0 28 A 22 22 0 1 0 0,-28 Z"
      fill="none"
      stroke="url(#h24Blue)"
      stroke-width="8"
      stroke-linecap="round"
      opacity="0.92"
    />
  </g>

  <text x="200" y="268" text-anchor="middle" fill="url(#h24Blue)" font-family="Arial, Helvetica, sans-serif" font-size="22" font-weight="800" letter-spacing="3" opacity="0.88">ORIGINAL</text>
  <text x="200" y="296" text-anchor="middle" fill="url(#h24Blue)" font-family="Arial, Helvetica, sans-serif" font-size="16" font-weight="700" letter-spacing="2" opacity="0.82">ISSUED</text>
</svg>
